<svg xmlns="http://www.w3.org/2000/svg" width="410" height="114" viewBox="0 0 410 114" role="img" aria-label="PostHog/duckgres: 177 stars, 18 forks, Go">
<title>PostHog/duckgres: 177 stars, 18 forks, Go</title>
<rect x="0.5" y="0.5" width="409" height="113" rx="10" fill="#0d1117" stroke="#ff6e96" stroke-opacity="0.4" stroke-width="1" />
<text x="18" y="28" fill="#79dafa" font-family="SFMono-Regular, Consolas, 'Liberation Mono', Menlo, monospace" font-size="14">▸</text>
<text x="34" y="28" fill="#ff6e96" font-family="SFMono-Regular, Consolas, 'Liberation Mono', Menlo, monospace" font-size="14" font-weight="600"><tspan fill="#9f9f9f" opacity="0.65">PostHog/</tspan>duckgres</text>
<line x1="18" y1="40" x2="392" y2="40" stroke="#9f9f9f" stroke-width="1" opacity="0.12" />
<text x="18" y="60" fill="#9f9f9f" font-family="-apple-system, BlinkMacSystemFont, 'Segoe UI', Helvetica, Arial, sans-serif" font-size="12">OLAPostHog Server</text>
<line x1="18" y1="74" x2="392" y2="74" stroke="#9f9f9f" stroke-width="1" opacity="0.12" />
<circle cx="22" cy="90" r="3.5" fill="#00ADD8" />
<text x="33" y="94" fill="#e6edf3" font-family="-apple-system, BlinkMacSystemFont, 'Segoe UI', Helvetica, Arial, sans-serif" font-size="12" opacity="0.9">Go</text>
<polygon points="309.48,84.4 310.96,87.96 314.81,88.27 311.88,90.78 312.77,94.53 309.48,92.52 306.19,94.53 307.08,90.78 304.15,88.27 308,87.96" fill="#79dafa"><animate attributeName="opacity" from="0.35" to="1" dur="0.7s" begin="0.2s" fill="freeze" /></polygon>
<text x="343.592" y="94" fill="#e6edf3" font-family="SFMono-Regular, Consolas, 'Liberation Mono', Menlo, monospace" font-size="12" text-anchor="end">177</text>
<path d="M361.19 85.6 V89.4 H369.99 V85.6 M365.59 89.4 V94.4" fill="none" stroke="#79dafa" stroke-width="1.3" stroke-linecap="round" />
<circle cx="361.19" cy="85.6" r="1.7" fill="#79dafa" />
<circle cx="369.99" cy="85.6" r="1.7" fill="#79dafa" />
<circle cx="365.59" cy="94.4" r="1.7" fill="#79dafa" />
<text x="392" y="94" fill="#e6edf3" font-family="SFMono-Regular, Consolas, 'Liberation Mono', Menlo, monospace" font-size="12" text-anchor="end">18</text>
</svg>